<svg id="Layer_3" data-name="Layer 3" xmlns="http://www.w3.org/2000/svg" viewBox="0 0 357.44 298.32"><defs><style>.cls-1{fill:#00ced3;}.cls-1,.cls-15,.cls-16,.cls-17,.cls-20,.cls-26,.cls-3,.cls-30,.cls-31,.cls-4,.cls-5,.cls-6,.cls-7,.cls-8{stroke:#2d1d6a;}.cls-1,.cls-14,.cls-16,.cls-17,.cls-20,.cls-25,.cls-26,.cls-27,.cls-3,.cls-30,.cls-5{stroke-miterlimit:10;}.cls-1,.cls-14,.cls-17{stroke-width:0.33px;}.cls-16,.cls-2,.cls-20,.cls-25,.cls-26,.cls-3,.cls-31{fill:#fff;}.cls-3,.cls-4,.cls-5{stroke-width:0.47px;}.cls-14,.cls-15,.cls-27,.cls-30,.cls-4,.cls-5,.cls-6,.cls-7,.cls-8{fill:none;}.cls-15,.cls-31,.cls-4,.cls-6,.cls-7,.cls-8{stroke-linecap:round;stroke-linejoin:round;}.cls-6,.cls-7,.cls-8{stroke-width:0.7px;}.cls-7{stroke-dasharray:4.06 4.06;}.cls-8{stroke-dasharray:4.06 4.06;}.cls-9{fill:#2d1d6a;}.cls-10{fill:#ebf5ff;}.cls-11{fill:#e2e0f6;}.cls-12{fill:#e2762d;}.cls-13{fill:#5425cd;}.cls-14,.cls-27{stroke:#fff;}.cls-15,.cls-16,.cls-27,.cls-30,.cls-31{stroke-width:0.5px;}.cls-17{fill:#00f0e2;}.cls-18{fill:#151852;}.cls-19{fill:#1a1714;}.cls-20{stroke-width:0.24px;}.cls-21{fill:#0035c3;}.cls-22{fill:#0011af;}.cls-23{fill:#f89a7a;}.cls-24{fill:#282e53;}.cls-25{stroke:#000;stroke-width:0.23px;}.cls-26{stroke-width:0.37px;}.cls-28{fill:#f8b791;}.cls-29{fill:#ecbb95;}</style></defs><title>vect</title><rect class="cls-1" x="302.78" y="2.84" width="26.98" height="26.98"/><rect class="cls-2" x="332.89" y="34.84" width="9.64" height="9.64"/><rect class="cls-3" x="284.98" y="21.05" width="26.41" height="27.37"/><line class="cls-3" x1="285.7" y1="21.31" x2="310.68" y2="48.14"/><line class="cls-3" x1="310.68" y1="21.31" x2="285.7" y2="48.14"/><rect class="cls-3" x="191.55" y="21.05" width="26.41" height="27.37"/><line class="cls-3" x1="192.27" y1="21.31" x2="217.25" y2="48.14"/><line class="cls-3" x1="217.25" y1="21.31" x2="192.27" y2="48.14"/><rect class="cls-4" x="9.1" y="77.27" width="51.03" height="37.97"/><rect class="cls-3" x="12.74" y="82.73" width="43.74" height="4.86"/><line class="cls-3" x1="12.29" y1="93.67" x2="37.04" y2="93.67"/><line class="cls-3" x1="12.29" y1="99.44" x2="37.04" y2="99.44"/><line class="cls-3" x1="12.29" y1="105.21" x2="37.04" y2="105.21"/><line class="cls-3" x1="12.29" y1="111.28" x2="37.04" y2="111.28"/><rect class="cls-3" x="40.08" y="93.67" width="16.4" height="17.62"/><line class="cls-5" x1="40.08" y1="93.67" x2="56.48" y2="111.28"/><line class="cls-5" x1="56.48" y1="93.67" x2="40.08" y2="111.28"/><rect class="cls-1" x="59.41" y="17.05" width="103.41" height="31.84"/><line class="cls-3" x1="66.4" y1="24.47" x2="155.84" y2="24.47"/><line class="cls-3" x1="66.4" y1="30.25" x2="155.84" y2="30.25"/><line class="cls-3" x1="66.4" y1="36.03" x2="155.84" y2="36.03"/><line class="cls-3" x1="66.4" y1="41.81" x2="155.84" y2="41.81"/><polyline class="cls-6" points="51.85 166.21 51.85 168.2 49.85 168.2"/><line class="cls-7" x1="45.8" y1="168.2" x2="31.59" y2="168.2"/><polyline class="cls-6" points="29.57 168.2 27.57 168.2 27.57 166.21"/><line class="cls-8" x1="27.57" y1="162.15" x2="27.57" y2="147.95"/><polyline class="cls-6" points="27.57 145.92 27.57 143.92 29.57 143.92"/><line class="cls-7" x1="33.62" y1="143.92" x2="47.82" y2="143.92"/><polyline class="cls-6" points="49.85 143.92 51.85 143.92 51.85 145.92"/><line class="cls-8" x1="51.85" y1="149.98" x2="51.85" y2="164.18"/><path class="cls-9" d="M484.53,258.13v-121a5.71,5.71,0,0,0-5.71-5.7H282a5.71,5.71,0,0,0-5.71,5.7v121Z" transform="translate(-208.36 -70.71)"/><path class="cls-2" d="M282,281.86a6,6,0,0,1-6-6V258.47H484.5v17.39a6,6,0,0,1-6,6Z" transform="translate(-208.36 -70.71)"/><path d="M484.4,258.58v17.28a5.9,5.9,0,0,1-5.9,5.89H282a5.89,5.89,0,0,1-5.89-5.89V258.58H484.4m.21-.22H275.85v17.5A6.11,6.11,0,0,0,282,282H478.5a6.11,6.11,0,0,0,6.11-6.11v-17.5Z" transform="translate(-208.36 -70.71)"/><path class="cls-2" d="M385.66,268.65a5.43,5.43,0,1,1-5.43-5.43A5.44,5.44,0,0,1,385.66,268.65Z" transform="translate(-208.36 -70.71)"/><path class="cls-2" d="M345.23,308.28c-1.06,0-1.16-.25-1.17-.29s.2-.3.38-.39h0l3.19-1.18c1.68-.63,4-1.52,5.35-2.18,2.38-1.14,2.55-1.92,3.41-5.67.94-4.09,1.82-12.83,2.17-16.5h43.35c.34,3.66,1.22,12.36,2.17,16.5.85,3.75,1,4.53,3.41,5.67,1.38.66,3.7,1.56,5.41,2.21s3.22,1.39,3.24,1.39.27.22.26.27-.06.18-1,.18Z" transform="translate(-208.36 -70.71)"/><path d="M401.81,282.18c.35,3.72,1.23,12.31,2.16,16.42.85,3.69,1,4.57,3.48,5.74,1.37.66,3.7,1.56,5.41,2.21s3.22,1.38,3.22,1.38a1,1,0,0,1,.19.15,2.24,2.24,0,0,1-.87.1H345.25c-.94-.05-1.07-.21-1.08-.21h0a.78.78,0,0,1,.29-.28s1.44-.51,3.21-1.18,4-1.52,5.35-2.18c2.43-1.17,2.63-2,3.48-5.74.92-4.07,1.8-12.69,2.16-16.42h43.15m.2-.21H358.46c-.35,3.78-1.23,12.47-2.17,16.58-.86,3.77-1.06,4.49-3.36,5.59-1.3.63-3.5,1.49-5.34,2.18s-3.2,1.18-3.2,1.18-1.4.78.84.89H415.4c1.89,0,.79-.64.79-.64s-1.52-.75-3.26-1.4-4.08-1.58-5.39-2.21c-2.3-1.1-2.5-1.82-3.36-5.59-.94-4.11-1.82-12.8-2.17-16.58Z" transform="translate(-208.36 -70.71)"/><path class="cls-9" d="M403.35,292.28c-.19-1.79-1.24-9.16-1.35-10.31H358.46c-.11,1.15,0,1.73-.2,3.52Z" transform="translate(-208.36 -70.71)"/><rect class="cls-10" x="77.56" y="70.46" width="188.61" height="106.21"/><rect class="cls-3" x="77.56" y="70.46" width="188.61" height="10.54"/><rect class="cls-3" x="222.97" y="83.25" width="39.65" height="51.59"/><rect class="cls-3" x="79.56" y="83.31" width="141.62" height="91.15"/><rect class="cls-11" x="94.2" y="73.2" width="127.45" height="5.06"/><rect class="cls-11" x="85.3" y="73.2" width="5.41" height="5.06"/><path class="cls-11" d="M450.56,148.58v-.29a1.78,1.78,0,0,0-1.78-1.78H447a1.78,1.78,0,0,0-1.78,1.78v.29Z" transform="translate(-208.36 -70.71)"/><path class="cls-11" d="M449.08,144.43a1.19,1.19,0,1,1-1.19-1.19A1.19,1.19,0,0,1,449.08,144.43Z" transform="translate(-208.36 -70.71)"/><path class="cls-12" d="M451.94,148.45a1.59,1.59,0,1,1-1.58-1.58A1.58,1.58,0,0,1,451.94,148.45Z" transform="translate(-208.36 -70.71)"/><path class="cls-11" d="M461,143.55h-4.83a.45.45,0,0,0-.45.45v3.78a.46.46,0,0,0,.45.46h.3v1l1.06-1H461a.47.47,0,0,0,.46-.46V144A.46.46,0,0,0,461,143.55Z" transform="translate(-208.36 -70.71)"/><path class="cls-12" d="M462.9,148.45a1.59,1.59,0,1,1-1.58-1.58A1.58,1.58,0,0,1,462.9,148.45Z" transform="translate(-208.36 -70.71)"/><rect class="cls-3" x="222.97" y="136.93" width="39.65" height="37.06"/><rect class="cls-11" x="236.06" y="92.95" width="9.47" height="2.19"/><rect class="cls-11" x="225.64" y="85.85" width="9.47" height="2.19"/><rect class="cls-11" x="225.64" y="129.58" width="9.47" height="2.19"/><rect class="cls-11" x="245.06" y="85.85" width="3.23" height="2.19"/><rect class="cls-11" x="250.04" y="85.85" width="3.23" height="2.19"/><rect class="cls-11" x="225.64" y="139.53" width="9.47" height="2.19"/><rect class="cls-11" x="245.06" y="139.53" width="3.23" height="2.19"/><rect class="cls-11" x="250.04" y="139.53" width="3.23" height="2.19"/><rect class="cls-11" x="236.06" y="97.06" width="16.74" height="2.19"/><path class="cls-11" d="M441.82,166.65a3.87,3.87,0,1,1-3.87-3.87A3.87,3.87,0,0,1,441.82,166.65Z" transform="translate(-208.36 -70.71)"/><rect class="cls-11" x="236.06" y="105.58" width="9.47" height="2.19"/><rect class="cls-11" x="236.06" y="109.69" width="16.74" height="2.19"/><path class="cls-11" d="M441.82,179.28a3.87,3.87,0,1,1-3.87-3.87A3.87,3.87,0,0,1,441.82,179.28Z" transform="translate(-208.36 -70.71)"/><rect class="cls-11" x="236.06" y="118.21" width="9.47" height="2.19"/><rect class="cls-11" x="236.06" y="122.32" width="16.74" height="2.19"/><path class="cls-11" d="M441.82,191.91A3.87,3.87,0,1,1,438,188,3.87,3.87,0,0,1,441.82,191.91Z" transform="translate(-208.36 -70.71)"/><rect class="cls-11" x="236.06" y="147.58" width="9.47" height="2.19"/><rect class="cls-11" x="236.06" y="151.68" width="16.74" height="2.19"/><rect class="cls-11" x="225.8" y="146.3" width="7.58" height="7.58"/><rect class="cls-11" x="236.06" y="161.71" width="9.47" height="2.19"/><rect class="cls-11" x="236.06" y="165.82" width="16.74" height="2.19"/><rect class="cls-11" x="225.8" y="160.43" width="7.58" height="7.58"/><rect class="cls-11" x="84.57" y="84.67" width="132.36" height="41.14"/><rect class="cls-13" x="141.36" y="91.81" width="45.8" height="3.1"/><rect class="cls-13" x="141.36" y="98.45" width="52.24" height="2.32"/><rect class="cls-13" x="141.15" y="103.87" width="45.61" height="2.34"/><rect class="cls-13" x="141.15" y="109.11" width="50.78" height="2.32"/><rect class="cls-13" x="141.15" y="114.77" width="11.35" height="2.32"/><rect class="cls-13" x="90.98" y="91.97" width="46.09" height="27.25"/><line class="cls-14" x1="90.98" y1="91.97" x2="137.07" y2="119.22"/><line class="cls-14" x1="137.07" y1="91.97" x2="90.98" y2="119.22"/><path class="cls-15" d="M217.2,126.2a12.61,12.61,0,0,0,14.53-19.91c-1.91-2.15-5.62-3.47-7.51-1.29a5,5,0,0,0-.87,3.82,12.78,12.78,0,0,0,5.15,8.52,20.75,20.75,0,0,0,9.43,3.68,18.17,18.17,0,0,0,9.62-.82,10.23,10.23,0,0,0,6.26-7" transform="translate(-208.36 -70.71)"/><path class="cls-15" d="M496.26,146.1l3.41,3.68" transform="translate(-208.36 -70.71)"/><path class="cls-15" d="M474.55,180.6l3.83,3.22" transform="translate(-208.36 -70.71)"/><polygon class="cls-16" points="25.84 270.84 23.19 290.39 29.15 289.73 34.12 273.16 25.84 270.84"/><path class="cls-16" d="M265,354.14l.79,5.78a1.48,1.48,0,0,1-.7,1.71,3.92,3.92,0,0,1-2.22.44c-.57-.05-1.32.23-1.51-.31L260,356.13c-.34-.93.47-.87,1.46-.92l1.72-.09C263.91,355.09,264.82,353.48,265,354.14Z" transform="translate(-208.36 -70.71)"/><path class="cls-9" d="M260,360.1l0,8.18,5.31.1s.31-.81.76-.8.85.83,1.36.84l2.85.06,10.65.21s.26-1.2,0-1.62a4.86,4.86,0,0,0-1.61-.8c-2.73-.91-10.39-4-12-6.5-.66-1-.88-1.78-1.32-1.32C264,360.55,260,360.1,260,360.1Z" transform="translate(-208.36 -70.71)"/><path class="cls-9" d="M230.89,358.78l-1,9.83,5.31.1s.31-.8.76-.8.85.84,1.36.85l2.85.05,10.65.22s.27-1.21,0-1.63a5,5,0,0,0-1.61-.8c-2.73-.91-10-3.51-11-6.5-.3-.87-2.55-.41-3.32-.33C231.88,360.1,230.89,358.78,230.89,358.78Z" transform="translate(-208.36 -70.71)"/><path class="cls-17" d="M265.67,356.13,260,357.79l-5.63-20.55c-.19-2-.74-7-.33-8.94l2-9.94-9.84-40.09,19.11-8.65S270.18,318.64,265.67,356.13Z" transform="translate(-208.36 -70.71)"/><path class="cls-18" d="M265.25,198.35c3.3,4-1.58,11.15-.56,14.37,3.19,10.12-7.08,12.34-12.49,8.6-2.3-1.59,2.12-11,1.28-13.7a8,8,0,0,1,1.45-7.85,7.05,7.05,0,0,1,6.08-2,9.06,9.06,0,0,1,5.56,3.33" transform="translate(-208.36 -70.71)"/><path class="cls-18" d="M254.65,212.63c1.85,11.3-.91,23.75-9.1,31.75s-22.16,10.19-31.36,3.39c-2.57-1.89-4.83-4.81-4.38-8a7.93,7.93,0,0,1,3.3-5,12.81,12.81,0,0,1,9.1-2.45c-4.38-3.95-3.91-12,.9-15.4,3-2.11,6.83-2.41,10.42-3.06a24.1,24.1,0,0,0,11-4.51c2.68-2.16,4.05-5,5.08-8.2C252.89,202.75,254.09,209.24,254.65,212.63Z" transform="translate(-208.36 -70.71)"/><path class="cls-19" d="M260.3,252c0,.18-.8.38-1.8.46l-11.39.89c-1,.08-1.84,0-1.85-.17l0-.64c0-.18.79-.38,1.79-.46l11.39-.89c1-.08,1.84,0,1.85.17Z" transform="translate(-208.36 -70.71)"/><path class="cls-20" d="M283.71,225.42l10.05-5.5,4.3-3.79a4,4,0,0,1,2.29-.67l3.21-.3c-.1-.11.53.11.58.13l2.17,1a.35.35,0,0,1,0,.65L302.75,218a3.36,3.36,0,0,0-2.08,1.77l-.07.13a.42.42,0,0,0,.33.6l2,.21a.66.66,0,0,1,.59.71.65.65,0,0,1-.49.6l-2.34.65a2.3,2.3,0,0,1-.74.06l-4.85-.23-8.5,6.42C286.23,229.15,283.71,225.55,283.71,225.42Z" transform="translate(-208.36 -70.71)"/><line class="cls-20" x1="92.95" y1="146.49" x2="97.76" y2="145.54"/><line class="cls-20" x1="92.6" y1="145.73" x2="96.91" y2="145.09"/><line class="cls-20" x1="91.74" y1="145.26" x2="96.04" y2="144.62"/><path class="cls-21" d="M244,225.15c0-1.39,1.53-5.1,7-4.57,12.22,1.2,23.9,8.26,23.9,8.26s2.8,3.65,1.7,6.39c-1.57,3.89-6.54,1-25.91-3.23C245.08,230.79,244.07,227.5,244,225.15Z" transform="translate(-208.36 -70.71)"/><path class="cls-22" d="M293.41,227.51a10.34,10.34,0,0,0-2.6-4.91c-4.95,1.68-11.69,4.07-16.37,6.81-1.74,1-1.69,6.8-.56,7.54s10.29-3.75,14-6.07C289.86,229.63,292.33,228.65,293.41,227.51Z" transform="translate(-208.36 -70.71)"/><path class="cls-18" d="M268.43,206.75c-.42,5.79-6,9.44-11.41,9s-9.49-5.41-9.07-11.21,5.17-10.17,10.6-9.77S268.86,201,268.43,206.75Z" transform="translate(-208.36 -70.71)"/><path class="cls-16" d="M244,222.22s3.93,8.51,9.3,10.16,8.06.67,9-1.46,1.27-6.46.1-7.64a13.7,13.7,0,0,1-3.06-4.42c-.77-1.72-.28-4.72.51-7s2.68-2.31.89-3.54-.93-2.27-2.83-2.09-2.93-.61-3.07,1.19c-.23,3.27-.3,7.89-2.28,9.87C250.32,219.46,247.63,220.05,244,222.22Z" transform="translate(-208.36 -70.71)"/><path class="cls-16" d="M261.92,199.33l-.48-.15a10.56,10.56,0,0,1-4.68,5.7,15.14,15.14,0,0,1-1.84,1l-.14,1.81a5.09,5.09,0,0,0,10.14.74l.3-4.08A10.94,10.94,0,0,1,261.92,199.33Z" transform="translate(-208.36 -70.71)"/><path class="cls-23" d="M258.09,209a.61.61,0,0,1-.65.11c-.54-.18-1.59-1.74-.34-2.11C257.83,206.83,259,208.23,258.09,209Z" transform="translate(-208.36 -70.71)"/><path class="cls-24" d="M263.06,203.16a.81.81,0,0,0-.66.25.45.45,0,0,0,.34.18,2.68,2.68,0,0,0,.4,0,1.79,1.79,0,0,1,.4,0,.55.55,0,0,0,.18,0c.3,0,0-.24-.06-.3A1.24,1.24,0,0,0,263.06,203.16Z" transform="translate(-208.36 -70.71)"/><path class="cls-24" d="M262.57,205.2a.08.08,0,0,0,.08,0,.6.6,0,0,1,.47-.18.57.57,0,0,1,.43.25.09.09,0,1,0,.14-.1.75.75,0,0,0-.56-.31.74.74,0,0,0-.6.23.09.09,0,0,0,0,.12Z" transform="translate(-208.36 -70.71)"/><path class="cls-24" d="M259.63,203.3a1,1,0,0,0-.77,0c-.16.08-.29.26-.47.29a.65.65,0,0,1,.41-.46,1.86,1.86,0,0,1,.62-.13c.27,0,.9-.22,1,.15S259.86,203.36,259.63,203.3Z" transform="translate(-208.36 -70.71)"/><path class="cls-24" d="M259,205.23a.07.07,0,0,0,.07,0,1.15,1.15,0,0,1,.47-.23.54.54,0,0,1,.52.13.08.08,0,0,0,.12,0,.09.09,0,0,0,0-.12.69.69,0,0,0-.68-.19,1.29,1.29,0,0,0-.55.27.07.07,0,0,0,0,.11A.05.05,0,0,0,259,205.23Z" transform="translate(-208.36 -70.71)"/><path class="cls-24" d="M261.42,208a.87.87,0,0,0,.86-.4.07.07,0,0,0,0-.11.08.08,0,0,0-.11,0,.75.75,0,0,1-.72.33h0a.08.08,0,0,0-.1.06.09.09,0,0,0,.07.1Z" transform="translate(-208.36 -70.71)"/><path class="cls-23" d="M261.08,210.8a1.08,1.08,0,0,0,.54-.07.08.08,0,0,0,0-.11.08.08,0,0,0-.11,0,.88.88,0,0,1-.81-.08,1.63,1.63,0,0,1-.6-.64.07.07,0,0,0-.11,0,.08.08,0,0,0,0,.11,2,2,0,0,0,.66.7A1.5,1.5,0,0,0,261.08,210.8Z" transform="translate(-208.36 -70.71)"/><path class="cls-23" d="M263.28,208.79a1.08,1.08,0,0,0,0,.44.47.47,0,0,0,.3.31.62.62,0,0,0,.58-.24c.29-.34.78-1.64.1-1.84S263.32,208.35,263.28,208.79Z" transform="translate(-208.36 -70.71)"/><path class="cls-19" d="M261.05,253.57c0,.19-.88.42-2,.51l-12.69,1c-1.12.09-2,0-2.06-.19l-.05-.72c0-.18.88-.41,2-.5l12.68-1c1.12-.09,2,0,2.06.19Z" transform="translate(-208.36 -70.71)"/><path class="cls-21" d="M267.33,233.63c-.54-6-2.58-7.61-4.77-10.3-.55-.67-2.61-3.07-3-3.69,4.48,11.14-7.23,5.94-11.22.59-5.74,1-8.57,5.32-8.54,5.7.42,4.14,5.79,20.76,5.79,20.76.18,1.65-1.15,6.73-2.14,11l17.58-4.83c1.14-.08,2.54-13.65,2.54-13.65a2.93,2.93,0,0,0-.07-.41C264.55,237.24,267.51,235.6,267.33,233.63Z" transform="translate(-208.36 -70.71)"/><path class="cls-17" d="M262,251.77s-1,2.1-7.62,2.65c-4,.33-9.94-1-9.94-1s-1.91,5-2.69,7.09a59.12,59.12,0,0,0-3.39,14.61,13.14,13.14,0,0,0,.12,2.85l3.64,29.13-5.3,12.25c-.81,1.82-2.09,4.33-2.32,6.3l-2.65,30.48,7.29,1.32c4-11.73,11.94-28.56,15.9-46.71a224.34,224.34,0,0,0,4.64-34.46l6-2.65-.31-1a3.07,3.07,0,0,0,.31-1.3C266,259.72,263,253.53,262,251.77Z" transform="translate(-208.36 -70.71)"/><path class="cls-15" d="M250.29,262.51a10.26,10.26,0,0,1-8.13,8.87" transform="translate(-208.36 -70.71)"/><rect class="cls-11" x="282.94" y="202.35" width="132.36" height="41.14" transform="matrix(0.99, -0.13, 0.13, 0.99, -234.86, -22.41)"/><rect class="cls-13" x="338.04" y="207.8" width="45.8" height="3.1" transform="translate(-232.95 -20.96) rotate(-7.63)"/><rect class="cls-13" x="338.84" y="213.96" width="52.24" height="2.32" transform="translate(-233.68 -20.37) rotate(-7.63)"/><rect class="cls-13" x="339.38" y="219.8" width="45.61" height="2.34" transform="translate(-234.48 -20.69) rotate(-7.63)"/><rect class="cls-13" x="340.05" y="224.65" width="50.78" height="2.32" transform="translate(-235.1 -20.21) rotate(-7.63)"/><rect class="cls-13" x="340.98" y="232.87" width="11.35" height="2.32" transform="translate(-236.35 -22.64) rotate(-7.63)"/><rect class="cls-13" x="289.73" y="214.52" width="46.09" height="27.25" transform="translate(-235.87 -27.18) rotate(-7.63)"/><line class="cls-14" x1="79.76" y1="146.99" x2="129.06" y2="167.88"/><line class="cls-14" x1="125.44" y1="140.88" x2="83.38" y2="174"/><path class="cls-20" d="M280.49,242.62l10.14-5.32,5.54-1.49a4.06,4.06,0,0,0,1.83-1.53l2-2.5c0,.14.21-.5.22-.56l.4-2.34a.35.35,0,0,0-.56-.33l-2.84,2.35a3.4,3.4,0,0,1-2.62.75l-.15,0a.4.4,0,0,1-.31-.6l.92-1.78a.67.67,0,0,0-1-.81l-1.83,1.6a2.1,2.1,0,0,0-.46.57l-2.5,4.17L279.2,238.3C278.78,238.45,280.37,242.54,280.49,242.62Z" transform="translate(-208.36 -70.71)"/><line class="cls-20" x1="88.72" y1="161.81" x2="92.18" y2="158.33"/><line class="cls-20" x1="89.16" y1="162.52" x2="92.08" y2="159.29"/><line class="cls-20" x1="89.07" y1="163.5" x2="91.98" y2="160.27"/><path class="cls-22" d="M239.41,226.79c.44-1.32,4.18-6.46,7.79-3.79a163.81,163.81,0,0,1,19.93,17.92s1.37,4.39-.62,6.58c-2.81,3.11-7.39-.35-23.25-11C238.51,233.32,238.67,229,239.41,226.79Z" transform="translate(-208.36 -70.71)"/><path class="cls-22" d="M284.36,241.68a10.26,10.26,0,0,0-1.91-5.22c-5.12,1-12.12,2.44-17.13,4.52-1.87.78-2.61,6.51-1.59,7.39s10.71-2.31,14.68-4.1C280.56,243.29,283.14,242.67,284.36,241.68Z" transform="translate(-208.36 -70.71)"/><path class="cls-15" d="M242.54,276.12q1.71,14.75,3.41,29.49a20.58,20.58,0,0,1,.14,5.54c-.44,2.89-2.06,5.43-3.48,8-5.63,10.11-7.72,22.71-8.24,34.43" transform="translate(-208.36 -70.71)"/><path class="cls-9" d="M466.69,309.7H280.61a1.15,1.15,0,0,1-1.14-1.15h0a1.14,1.14,0,0,1,1.14-1.14H466.69a1.14,1.14,0,0,1,1.14,1.14h0A1.15,1.15,0,0,1,466.69,309.7Z" transform="translate(-208.36 -70.71)"/><path class="cls-9" d="M453.29,316.14H316.87a1.14,1.14,0,0,1-1.14-1.14h0a1.14,1.14,0,0,1,1.14-1.15H453.29a1.14,1.14,0,0,1,1.14,1.15h0A1.14,1.14,0,0,1,453.29,316.14Z" transform="translate(-208.36 -70.71)"/><rect class="cls-2" x="443.71" y="280.51" width="28.52" height="40.02" transform="translate(-284.91 110.05) rotate(-20.64)"/><path d="M464.2,276.92l14,37.24-26.48,10-14-37.24,26.48-10m.13-.29-26.9,10.13,14.19,37.66,26.9-10.13-14.19-37.66Z" transform="translate(-208.36 -70.71)"/><line class="cls-25" x1="233.44" y1="218.7" x2="254.43" y2="210.79"/><line class="cls-25" x1="234.71" y1="222.08" x2="255.71" y2="214.17"/><line class="cls-25" x1="235.98" y1="225.46" x2="256.98" y2="217.55"/><line class="cls-25" x1="237.25" y1="228.84" x2="258.25" y2="220.92"/><line class="cls-25" x1="238.53" y1="232.21" x2="259.52" y2="224.3"/><line class="cls-25" x1="239.8" y1="235.59" x2="260.8" y2="227.68"/><line class="cls-25" x1="241.07" y1="238.97" x2="262.07" y2="231.06"/><line class="cls-25" x1="242.34" y1="242.35" x2="263.34" y2="234.44"/><line class="cls-25" x1="243.62" y1="245.72" x2="264.61" y2="237.81"/><line class="cls-25" x1="244.89" y1="249.1" x2="265.89" y2="241.19"/><path class="cls-26" d="M494.82,191.82c-13.9,3.48-18,21.2-24.74,41.55-3.58,10.87-5.27,19.87-6.85,33l-5.35,8.18a3.29,3.29,0,0,0-.73,2.64l.12,4.9c-.18-.13.26.78.31.86l1.83,3.1a.53.53,0,0,0,1-.18l1-5.5a5.19,5.19,0,0,1,2.3-3.47l.18-.12a.64.64,0,0,1,1,.39l.68,3a1,1,0,0,0,2-.07l.55-3.66a3.5,3.5,0,0,0,0-1.12l-1.18-7c10.72-18.44,16.35-26.05,21.24-41.88C491.39,215.62,498.74,195.61,494.82,191.82Z" transform="translate(-208.36 -70.71)"/><path class="cls-9" d="M492.09,357.15l-.48,6.25-5.09-.16s-.25-.79-.68-.81-.86.76-1.35.74l-2.73-.09-10.21-.32s-.19-1.17.1-1.56a4.55,4.55,0,0,1,1.59-.68c2.65-.74,10.25-3,11.65-5.77C486.58,351.43,492.09,357.15,492.09,357.15Z" transform="translate(-208.36 -70.71)"/><path class="cls-9" d="M471.55,361.44a4.14,4.14,0,0,0,0,1.32l10.21.32,2.73.09c.49,0,1-.75,1.35-.74s.68.81.68.81l5.09.16.27-1.31Z" transform="translate(-208.36 -70.71)"/><path class="cls-21" d="M483.61,356.5l8.36.65,2.34-37.95a23.67,23.67,0,0,0-1-7.05L490.24,302l2.11-15.86-2.29-26.89-16.69-14.94C472.15,243.77,474.22,312,483.61,356.5Z" transform="translate(-208.36 -70.71)"/><path class="cls-9" d="M532.05,364.68a4.42,4.42,0,0,1,.05,2.18s-7.86.71-10.36,0A12.78,12.78,0,0,1,519,365.3c-.18-.12-.46-.79-.63-.91s-.49.13-.75-.07a8.73,8.73,0,0,1-1.17-.95c-.55-4,.41-5.55.41-5.55s5.09-2.29,6.29-.54C526,361.39,531,362.76,532.05,364.68Z" transform="translate(-208.36 -70.71)"/><path class="cls-9" d="M532.39,365.77c-2.45.22-7.58.66-8.52.46a16.48,16.48,0,0,1-7.61-4.07,13.51,13.51,0,0,0,.17,1.63,8.58,8.58,0,0,0,1.19.85c.26.17.44-.13.75.06s.46.7.64.8a13.2,13.2,0,0,0,2.79,1.37c2.52.66,10.44.06,10.44.06A4.89,4.89,0,0,0,532.39,365.77Z" transform="translate(-208.36 -70.71)"/><path class="cls-21" d="M506.29,252.54l-11.37-3.33v-.08l-1.72-1.31-19.51-5.74s-.81,1.77-.34,13L484.84,264c3.22,10.73,6.73,23.52,12,33.51a41.57,41.57,0,0,1,4.59,16.24c1.33,17.89,15.45,44,15.45,44l7.67.25Z" transform="translate(-208.36 -70.71)"/><path class="cls-27" d="M489.11,267.21a135.79,135.79,0,0,0,10.67,26.26,46.75,46.75,0,0,1,3,6.22,42.92,42.92,0,0,1,1.73,8.19,236.93,236.93,0,0,0,11.93,46.44" transform="translate(-208.36 -70.71)"/><path class="cls-17" d="M475.41,217.38a24.19,24.19,0,0,0,4.67,2.26c2.87,1.06,5,1.66,5,1.66l10.36-29.56s0-1-4.33,1.07-5.26,2-9.95,10.1A47,47,0,0,0,475.41,217.38Z" transform="translate(-208.36 -70.71)"/><path class="cls-17" d="M507.68,193s-14.43-7.66-23.51,7.35-11.35,46.27-11.35,46.27l33.94,6.55,4.73-38.61S512.58,195.28,507.68,193Z" transform="translate(-208.36 -70.71)"/><path class="cls-28" d="M492.36,186.37a4.38,4.38,0,0,1-2.42-.69c-2.74-4.41,1.13-15.76,1.13-15.76l4.78-1.76,5.79,4,0,7.72a6.27,6.27,0,0,1-2.9,5.2h0A12.29,12.29,0,0,1,492.36,186.37Z" transform="translate(-208.36 -70.71)"/><path class="cls-16" d="M500.34,177" transform="translate(-208.36 -70.71)"/><polygon class="cls-29" points="285.02 154.57 277.39 154.57 275.69 139.13 286.44 139.13 285.02 154.57"/><polygon class="cls-13" points="285.85 149.31 276.46 149.26 275.76 142.37 286.5 142.37 285.85 149.31"/><rect class="cls-13" x="275.35" y="138.55" width="11.45" height="0.84"/><path class="cls-16" d="M521.82,220.34a55.22,55.22,0,0,1-8.48,1.24,30.9,30.9,0,0,1-8.69-.62l2.53,10.42-11.89-6.1.32-8.68-7.93-2.69a.91.91,0,0,0-1.17.59l-1,3.27a1.37,1.37,0,0,0,.37,1.39l6.47,6.1-.58,8.25s23.47,20.46,26.82,20.92,6,.73,5.73-12.89A136.94,136.94,0,0,0,521.82,220.34Z" transform="translate(-208.36 -70.71)"/><path class="cls-17" d="M513.52,221.68a57.73,57.73,0,0,0,8.56-1.25c-2-10.25-4.84-19.89-7.77-22.92-9.5-9.82-20.93-5.63-20.4-5.48l.07,0,10.08,26.15.69,2.84A31.85,31.85,0,0,0,513.52,221.68Z" transform="translate(-208.36 -70.71)"/><line class="cls-30" x1="292.02" y1="133.24" x2="298.82" y2="160.67"/><path class="cls-9" d="M495.11,225.1c-.16.26-.42,4.77-.42,4.77l2.8-3.47Z" transform="translate(-208.36 -70.71)"/><path class="cls-27" d="M496,254.9a11.54,11.54,0,0,0,8.68,6.61" transform="translate(-208.36 -70.71)"/><line class="cls-31" x1="279.13" y1="144.74" x2="285.18" y2="147.01"/><line class="cls-31" x1="279.01" y1="145.83" x2="284.8" y2="148.7"/><line class="cls-31" x1="278.63" y1="147.28" x2="284.42" y2="150.15"/><path class="cls-16" d="M502.41,183.24l-.21-3.4-6.26,4.81-.21,2.55-.31,4.54c.06,1.82,1.06,3.55,2.87,3.71l.86.11c2.53-.06,4.34-1.95,3.85-4.32Z" transform="translate(-208.36 -70.71)"/><path class="cls-16" d="M492.36,186.37a4.38,4.38,0,0,1-2.42-.69c-2.74-4.41,1.13-15.76,1.13-15.76l4.78-1.76,5.79,4,0,7.72a6.27,6.27,0,0,1-2.9,5.2h0A12.29,12.29,0,0,1,492.36,186.37Z" transform="translate(-208.36 -70.71)"/><path class="cls-23" d="M495.6,180a.83.83,0,0,0,.78.14c.73-.15,2.51-1.66,1.06-2.09C496.59,177.82,494.77,179.17,495.6,180Z" transform="translate(-208.36 -70.71)"/><path class="cls-23" d="M489.93,178.62a3,3,0,0,1-.22,1.22.29.29,0,0,1-.14.18c-.11.06-.25-.06-.31-.22a1.07,1.07,0,0,1-.05-.47c0-.33.05-1.15.3-1.32S489.92,178.29,489.93,178.62Z" transform="translate(-208.36 -70.71)"/><path class="cls-24" d="M490.92,172.85a1.11,1.11,0,0,1,.81.46.57.57,0,0,1-.48.18,4.87,4.87,0,0,1-.52-.12,2.29,2.29,0,0,0-.52-.05.59.59,0,0,1-.23,0c-.39-.11,0-.32.13-.38A1.83,1.83,0,0,1,490.92,172.85Z" transform="translate(-208.36 -70.71)"/><path class="cls-24" d="M491.14,175.61a.12.12,0,0,1-.09-.05.73.73,0,0,0-.57-.33.76.76,0,0,0-.62.23.11.11,0,1,1-.15-.15,1,1,0,0,1,.79-.3,1,1,0,0,1,.73.43.11.11,0,0,1,0,.15Z" transform="translate(-208.36 -70.71)"/><path class="cls-24" d="M495.35,173.73a1.37,1.37,0,0,1,1,.15c.2.15.32.39.56.47a.89.89,0,0,0-.44-.67,2.72,2.72,0,0,0-.78-.29c-.36-.09-1.13-.48-1.31,0S495,173.76,495.35,173.73Z" transform="translate(-208.36 -70.71)"/><path class="cls-24" d="M495.82,176.37a.11.11,0,0,1-.08,0,1.35,1.35,0,0,0-.57-.4.7.7,0,0,0-.71.07.11.11,0,0,1-.15,0,.1.1,0,0,1,0-.15.88.88,0,0,1,.92-.11,1.47,1.47,0,0,1,.66.46.1.1,0,0,1,0,.15A.08.08,0,0,1,495.82,176.37Z" transform="translate(-208.36 -70.71)"/><path class="cls-24" d="M492.08,179.48a1.14,1.14,0,0,1-1-.69.11.11,0,0,1,.19-.09,1,1,0,0,0,.87.57h0a.1.1,0,0,1,.1.1.1.1,0,0,1-.1.11Z" transform="translate(-208.36 -70.71)"/><path class="cls-23" d="M492,183.18a1.27,1.27,0,0,1-.7-.19.11.11,0,0,1,0-.15.11.11,0,0,1,.15,0,1.17,1.17,0,0,0,1.07.06,2.39,2.39,0,0,0,.91-.71.11.11,0,1,1,.16.14,2.55,2.55,0,0,1-1,.77A1.44,1.44,0,0,1,492,183.18Z" transform="translate(-208.36 -70.71)"/><path class="cls-9" d="M505,164.82a2.41,2.41,0,0,0-3.11,1.48,4.35,4.35,0,0,0-3.38-4.43,3.85,3.85,0,0,0-3.64,1.56l-1-.42a5.83,5.83,0,0,0-2.06-.42,4.22,4.22,0,0,0-3,.8,3.52,3.52,0,0,0-.75.79,4.38,4.38,0,0,0-1.43,2.82c-.19,4,4.53,4.87,7.12,5.39,1.76.36,3.72.68,5.2.86a27.38,27.38,0,0,1,1.47,3.23l1,4.66c1.12-.94,3.37-1.86,4.17-3.08a11.86,11.86,0,0,0,2.16-7C507.87,168.54,506.86,165.48,505,164.82Z" transform="translate(-208.36 -70.71)"/><path class="cls-16" d="M501.27,180.34a4.13,4.13,0,0,0,1.76-1.41,2,2,0,0,0,0-2.46c-.57-.54-1.76-.35-2.81.71" transform="translate(-208.36 -70.71)"/><path class="cls-30" d="M503.08,191.28c4.25,1.5,8.71,3.16,11.63,6.6a22.28,22.28,0,0,1,4,8.7c1.21,4.48,2.69,9.21,3.09,13.83" transform="translate(-208.36 -70.71)"/><path class="cls-27" d="M489.63,283.71A110.42,110.42,0,0,1,486.05,303c5,14.32,4.49,29.68,3.57,44.81" transform="translate(-208.36 -70.71)"/><path class="cls-30" d="M531,273.6l7,2.93" transform="translate(-208.36 -70.71)"/><path class="cls-30" d="M537,200.81c2.2-1.15,2.94-1.46,5.14-2.61" transform="translate(-208.36 -70.71)"/><path class="cls-30" d="M560,235.11c2.48,0,3.28.11,5.76.13" transform="translate(-208.36 -70.71)"/><line class="cls-26" x1="251.59" y1="207.58" x2="251.01" y2="215.03"/><line class="cls-26" x1="250.38" y1="207.2" x2="250.19" y2="213.82"/><line class="cls-26" x1="249.52" y1="205.98" x2="249.33" y2="212.59"/><path class="cls-15" d="M519.27,151.46a19.83,19.83,0,0,0,22.56,6c2.06-.85,4.23-3.22,2.86-5a13.57,13.57,0,0,0-15.75,19.19c1.43,2.85,4.68,5.33,7.65,4.16" transform="translate(-208.36 -70.71)"/><path class="cls-30" d="M390.88,94.68a13.17,13.17,0,0,0,.35,5.48" transform="translate(-208.36 -70.71)"/><path class="cls-30" d="M247.21,79.27a34.57,34.57,0,0,0,4.51,5.44" transform="translate(-208.36 -70.71)"/><path class="cls-30" d="M312.82,70.82c.54,1.13,1.94,6,2,4.47" transform="translate(-208.36 -70.71)"/><path class="cls-30" d="M208.47,278.05a10,10,0,0,1,5.46-1" transform="translate(-208.36 -70.71)"/><path class="cls-30" d="M213.94,203a8.81,8.81,0,0,0,4.49-.4" transform="translate(-208.36 -70.71)"/><path class="cls-30" d="M321.07,289.07,318,291.39" transform="translate(-208.36 -70.71)"/><path class="cls-30" d="M278.34,343.72a29.37,29.37,0,0,0,6.58-5.06" transform="translate(-208.36 -70.71)"/><path class="cls-30" d="M477.06,111.17l4.26-6.81" transform="translate(-208.36 -70.71)"/><path class="cls-18" d="M457.21,100.28a6.12,6.12,0,1,0,5.89,6.29A6.08,6.08,0,0,0,457.21,100.28Zm2.3,6.24-4.09,2.24-.06,0a.35.35,0,0,1,0-.07l.13-4.7a.24.24,0,0,1,0-.07l.06,0,4,2.46s.05,0,.05,0S459.54,106.49,459.51,106.52Z" transform="translate(-208.36 -70.71)"/></svg>